<svg width="24" height="24" viewBox="0 0 24 24" fill="none" xmlns="http://www.w3.org/2000/svg">
<path d="M4.00508 1.0876C3.2457 1.38291 2.60352 1.77666 1.96133 2.41885C1.31914 3.05635 0.925391 3.70322 0.630078 4.45791C0.344141 5.18916 0.151953 6.02822 0.0957031 7.25635C0.0394531 8.48447 0.0253906 8.87822 0.0253906 12.0095C0.0253906 15.1407 0.0394531 15.5345 0.0957031 16.7626C0.151953 17.9907 0.348828 18.8298 0.630078 19.561C0.925391 20.3204 1.31914 20.9626 1.96133 21.6048C2.60352 22.247 3.2457 22.6407 4.00508 22.936C4.73633 23.222 5.57539 23.4142 6.80352 23.4704C8.03164 23.5267 8.42539 23.5407 11.5566 23.5407C14.6879 23.5407 15.0816 23.5267 16.3098 23.4704C17.5379 23.4142 18.377 23.2173 19.1082 22.936C19.8676 22.6407 20.5098 22.247 21.152 21.6048C21.7941 20.9626 22.1879 20.3204 22.4832 19.561C22.7691 18.8298 22.9613 17.9907 23.0176 16.7626C23.0738 15.5345 23.0879 15.1407 23.0879 12.0095C23.0879 8.87822 23.0738 8.48447 23.0176 7.25635C22.9613 6.02822 22.7645 5.18916 22.4832 4.45791C22.1879 3.70322 21.7941 3.05635 21.1566 2.41885C20.5145 1.77666 19.8723 1.38291 19.1129 1.0876C18.3816 0.80166 17.5426 0.609473 16.3145 0.553223C15.0863 0.496973 14.6926 0.48291 11.5613 0.48291C8.43008 0.48291 8.03633 0.496973 6.8082 0.553223C5.57539 0.604785 4.73633 0.80166 4.00508 1.0876ZM16.216 2.6251C17.341 2.67666 17.9504 2.86416 18.3582 3.02354C18.8973 3.23447 19.2816 3.48291 19.6848 3.88603C20.0879 4.28916 20.3363 4.67353 20.5473 5.2126C20.7066 5.62041 20.8941 6.22978 20.9457 7.35478C21.002 8.56885 21.0113 8.93447 21.0113 12.0142C21.0113 15.0938 20.9973 15.4595 20.9457 16.6735C20.8941 17.7985 20.7066 18.4079 20.5473 18.8157C20.3363 19.3548 20.0879 19.7392 19.6848 20.1423C19.2816 20.5454 18.8973 20.7938 18.3582 21.0048C17.9504 21.1642 17.341 21.3517 16.216 21.4032C15.002 21.4595 14.6363 21.4688 11.5566 21.4688C8.47695 21.4688 8.11133 21.4548 6.89727 21.4032C5.77227 21.3517 5.16289 21.1642 4.75508 21.0048C4.21602 20.7938 3.83164 20.5454 3.42852 20.1423C3.02539 19.7392 2.77695 19.3548 2.56602 18.8157C2.40664 18.4079 2.21914 17.7985 2.16758 16.6735C2.11133 15.4595 2.10195 15.0938 2.10195 12.0142C2.10195 8.93447 2.11602 8.56885 2.16758 7.35478C2.21914 6.22978 2.40664 5.62041 2.56602 5.2126C2.77695 4.67353 3.02539 4.28916 3.42852 3.88603C3.83164 3.48291 4.21602 3.23447 4.75508 3.02354C5.16289 2.86416 5.77227 2.67666 6.89727 2.6251C8.11133 2.56885 8.47695 2.55947 11.5566 2.55947C14.6363 2.55947 15.002 2.56885 16.216 2.6251Z" fill="url(#paint0_radial_319_77)"/>
<path d="M5.63672 12.0141C5.63672 15.2859 8.28984 17.9344 11.557 17.9344C14.8242 17.9344 17.4773 15.2812 17.4773 12.0141C17.4773 8.74687 14.8289 6.09375 11.557 6.09375C8.28516 6.09375 5.63672 8.74219 5.63672 12.0141ZM15.4008 12.0141C15.4008 14.1375 13.6805 15.8578 11.557 15.8578C9.43359 15.8578 7.71328 14.1375 7.71328 12.0141C7.71328 9.89062 9.43359 8.17031 11.557 8.17031C13.6805 8.17031 15.4008 9.89062 15.4008 12.0141Z" fill="url(#paint1_radial_319_77)"/>
<path d="M17.7158 7.24219C18.4795 7.24219 19.0986 6.62308 19.0986 5.85938C19.0986 5.09567 18.4795 4.47656 17.7158 4.47656C16.9521 4.47656 16.333 5.09567 16.333 5.85938C16.333 6.62308 16.9521 7.24219 17.7158 7.24219Z" fill="#654C9F"/>
<defs>
<radialGradient id="paint0_radial_319_77" cx="0" cy="0" r="1" gradientUnits="userSpaceOnUse" gradientTransform="translate(0.445014 21.4297) rotate(-3.00009) scale(33.3428 28.3411)">
<stop stop-color="#FED576"/>
<stop offset="0.2634" stop-color="#F47133"/>
<stop offset="0.6091" stop-color="#BC3081"/>
<stop offset="1" stop-color="#4C63D2"/>
</radialGradient>
<radialGradient id="paint1_radial_319_77" cx="0" cy="0" r="1" gradientUnits="userSpaceOnUse" gradientTransform="translate(5.85147 16.8486) rotate(-3.00009) scale(17.122 14.5535)">
<stop stop-color="#FED576"/>
<stop offset="0.2634" stop-color="#F47133"/>
<stop offset="0.6091" stop-color="#BC3081"/>
<stop offset="1" stop-color="#4C63D2"/>
</radialGradient>
</defs>
</svg>
