<svg width="20" height="18" viewBox="0 0 20 18" fill="none" xmlns="http://www.w3.org/2000/svg">
<path d="M1.99999 18V5.1L0.0499878 0.85L1.84999 0L4.19999 5.05H15.8L18.15 0L19.95 0.85L18 5.1V18H1.99999ZM7.99999 11H12C12.2833 11 12.521 10.904 12.713 10.712C12.905 10.52 13.0007 10.2827 13 10C12.9993 9.71733 12.9033 9.48 12.712 9.288C12.5207 9.096 12.2833 9 12 9H7.99999C7.71665 9 7.47932 9.096 7.28799 9.288C7.09665 9.48 7.00065 9.71733 6.99999 10C6.99932 10.2827 7.09532 10.5203 7.28799 10.713C7.48065 10.9057 7.71799 11.0013 7.99999 11ZM3.99999 16H16V7.05H3.99999V16Z" fill="black"/>
</svg>
